<svg width="63" height="21" viewBox="0 0 63 21" fill="none" xmlns="http://www.w3.org/2000/svg">
<path d="M27.845 7.74194V6.96774C27.0708 6.32258 26.5546 5.35486 26.5546 4.25806C26.5546 2.32258 28.1675 0.709661 30.103 0.709661C32.0385 0.709661 33.6515 2.32255 33.6515 4.25806C33.6515 5.09676 33.3289 5.93548 32.8127 6.51615C33.0708 6.51615 33.2644 6.58068 33.5224 6.64518C34.0386 5.93552 34.2966 5.09679 34.2966 4.19357C34.2966 1.87095 32.4256 0 30.103 0C27.7805 0 25.9095 1.87095 25.9095 4.19353C25.9095 5.67742 26.6837 6.96774 27.845 7.74194Z" fill="#999999"/>
<path d="M33.0063 4.19354C33.0063 2.58065 31.716 1.29033 30.103 1.29033C28.4901 1.29033 27.1998 2.58065 27.1998 4.19354C27.1998 4.90323 27.4579 5.54839 27.845 5.99999V4.19354C27.845 2.96775 28.8772 1.93546 30.1031 1.93546C31.3289 1.93546 32.3612 2.96771 32.3612 4.19354V5.99999C32.7482 5.54839 33.0063 4.90323 33.0063 4.19354Z" fill="#999999"/>
<path d="M37.845 9.03226C37.4579 9.03226 37.1353 9.16129 36.8772 9.35482C36.8772 8.45159 36.1675 7.74193 35.2643 7.74193C34.8772 7.74193 34.4901 7.87097 34.1675 8.12903C33.9095 7.48387 33.3288 7.09677 32.6837 7.09677C32.2966 7.09677 31.974 7.2258 31.7159 7.41934V4.19353C31.7159 3.2903 31.0062 2.58064 30.103 2.58064C29.1998 2.58064 28.4901 3.29034 28.4901 4.19353V9.93548C27.1998 8.77419 25.7805 7.87097 24.8772 8.77419C23.5869 10.0645 26.2966 12.5806 28.3611 16.3871C29.845 19.0322 31.9095 20 33.974 20C37.0063 20 39.4579 17.5484 39.4579 14.5161V10.6452C39.4579 9.74192 38.7482 9.03226 37.845 9.03226ZM38.8127 12.0645V14.5161C38.8127 17.0323 36.6192 19.3549 33.974 19.3549C31.5224 19.3549 30.103 18 28.9417 16.1291C26.4256 11.871 24.6191 9.93552 25.3288 9.22582C26.0385 8.51616 27.7804 10.0645 29.1353 11.4839V4.19353C29.1353 3.6774 29.5869 3.22577 30.103 3.22577C30.6192 3.22577 31.0708 3.6774 31.0708 4.19353V10.9677H31.7159V8.70962C31.7159 8.1935 32.1675 7.74187 32.6837 7.74187C33.1998 7.74187 33.6515 8.1935 33.6515 8.70962V10.3226H34.2966V9.35482C34.2966 8.83869 34.7482 8.38706 35.2644 8.38706C35.7805 8.38706 36.2321 8.83869 36.2321 9.35482V10.9677H36.8773V10.6451C36.8773 10.129 37.3289 9.67738 37.8451 9.67738C38.3612 9.67738 38.8128 10.129 38.8128 10.6451V12.0645H38.8127Z" fill="#999999"/>
<path d="M47.337 0.821923L48.4904 0.0199191L62.1722 10.2597L48.1389 20.0168L47.0143 19.175L59.8935 10.2193L47.337 0.821923Z" fill="#999999"/>
<path d="M14.9977 19.178L13.8585 20L2.70517e-07 10.0005L13.8609 0L15 0.822012L2.27907 10.0011L14.9977 19.178Z" fill="#999999"/>
</svg>
